<svg width="40" height="40" viewBox="0 0 40 40" fill="none" xmlns="http://www.w3.org/2000/svg">
<path d="M28.2751 14.7687L20.3467 10.191C20.1203 10.0599 19.8406 10.0599 19.6143 10.191L11.6858 14.7687C11.4594 14.8996 11.3196 15.1415 11.3196 15.4029V24.5582C11.3196 24.8195 11.4594 25.0615 11.6858 25.1924L19.6143 29.77C19.7278 29.8353 19.8537 29.8682 19.9805 29.8682C20.1073 29.8682 20.2332 29.8353 20.3467 29.77L28.2751 25.1924C28.5015 25.0615 28.6414 24.8195 28.6414 24.5582V15.4029C28.6414 15.1415 28.5015 14.8996 28.2751 14.7687ZM12.7844 16.6869L19.248 20.4186V27.8673L12.7844 24.1356V16.6869ZM19.9805 19.1499L13.5036 15.4102L19.9805 11.6712L26.4574 15.4102L19.9805 19.1499ZM27.1765 24.1356L20.7129 27.8673V20.4186L27.1765 16.6869V24.1356Z" fill="#E5E5E5" stroke="#E5E5E5" stroke-width="1.4"/>
<path d="M37.998 7.09122C38.4023 7.09122 38.7305 6.763 38.7305 6.3588V1.96289C38.7305 1.55869 38.4023 1.23047 37.998 1.23047H33.6021C33.1979 1.23047 32.8697 1.55869 32.8697 1.96289V3.42865H7.09122V1.96289C7.09122 1.55869 6.763 1.23047 6.3588 1.23047H1.96289C1.55869 1.23047 1.23047 1.55869 1.23047 1.96289V6.3588C1.23047 6.763 1.55869 7.09122 1.96289 7.09122H3.42865V32.8697H1.96289C1.55869 32.8697 1.23047 33.1979 1.23047 33.6021V37.998C1.23047 38.4023 1.55869 38.7305 1.96289 38.7305H6.3588C6.763 38.7305 7.09122 38.4023 7.09122 37.998V36.5323H9.48349C9.8877 36.5323 10.2159 36.2045 10.2159 35.7999C10.2159 35.3957 9.8877 35.0674 9.48349 35.0674H7.09122V33.6021C7.09122 33.1979 6.763 32.8697 6.3588 32.8697H4.89349V7.09122H6.3588C6.763 7.09122 7.09122 6.763 7.09122 6.3588V4.89349H32.8697V6.3588C32.8697 6.763 33.1979 7.09122 33.6021 7.09122H35.0674V32.8697H33.6021C33.1979 32.8697 32.8697 33.1979 32.8697 33.6021V35.0674H14.6228C14.2177 35.0674 13.8904 35.3957 13.8904 35.7999C13.8904 36.2045 14.2177 36.5323 14.6228 36.5323H32.8697V37.998C32.8697 38.4023 33.1979 38.7305 33.6021 38.7305H37.998C38.4023 38.7305 38.7305 38.4023 38.7305 37.998V33.6021C38.7305 33.1979 38.4023 32.8697 37.998 32.8697H36.5323V7.09122H37.998ZM5.62637 34.3346V37.2656H2.69531V34.3346H5.62637ZM5.62637 5.62637H2.69531V2.69531H5.62637V5.62637ZM37.2656 34.3346V37.2656H34.3346V34.3346H37.2656ZM34.3346 5.62637V2.69531H37.2656V5.62637H34.3346Z" fill="#E5E5E5" stroke="#E5E5E5" stroke-width="1.4"/>
</svg>
