<svg width="40" height="40" viewBox="0 0 40 40" fill="none" xmlns="http://www.w3.org/2000/svg">
<path d="M26.3666 12.0333L24.7 12.7C24.35 12.4333 23.9833 12.2167 23.5833 12.05L23.3333 10.2833C23.3 10.1167 23.1666 10 23 10H20.3333C20.1666 10 20.0333 10.1167 20.0166 10.2833L19.7666 12.05C19.3666 12.2167 18.9833 12.4333 18.65 12.7L16.9833 12.0333C16.8333 11.9833 16.65 12.0333 16.5833 12.1833L15.25 14.4833C15.1666 14.6333 15.2 14.8167 15.3333 14.9167L16.75 16.0167C16.7 16.2167 16.6666 16.45 16.6666 16.6667C16.6666 16.8833 16.6833 17.1 16.7166 17.3167L15.3166 18.4167C15.1833 18.5167 15.15 18.7 15.2333 18.8333L16.5666 21.15C16.65 21.3 16.8166 21.35 16.9833 21.3L18.6333 20.6333C18.9833 20.9 19.35 21.1167 19.7666 21.2833L20 23.05C20.0333 23.2167 20.1666 23.3333 20.3333 23.3333H23C23.1666 23.3333 23.3 23.2167 23.3333 23.05L23.5833 21.2833C23.9833 21.1167 24.3666 20.9 24.7 20.6333L26.35 21.3C26.5 21.3667 26.6833 21.3 26.75 21.15L28.0833 18.8333C28.1666 18.6833 28.1333 18.5167 28 18.4167L26.6166 17.3167C26.65 17.1 26.6666 16.8833 26.6666 16.6667C26.6666 16.4333 26.65 16.2167 26.6166 16.0167L28.0333 14.9167C28.1666 14.8167 28.2 14.6333 28.1166 14.4833L26.7833 12.1833C26.7 12.0333 26.5166 11.9833 26.3666 12.0333ZM21.6666 19.05C20.35 19.05 19.2833 17.9833 19.2833 16.6667C19.2833 15.35 20.35 14.2833 21.6666 14.2833C22.9833 14.2833 24.05 15.35 24.05 16.6667C24.05 17.9833 22.9833 19.05 21.6666 19.05Z" fill="#E5E5E5"/>
<path d="M33.2333 15.1C32.5166 9.65 27.8499 5.33333 22.3499 5.01667C22.1166 5 21.8999 5 21.6666 5C15.7833 5 10.9499 9.35 10.1333 15L6.91662 20.8C6.23328 21.9 7.03328 23.3333 8.33328 23.3333H9.99995V26.6667C9.99995 28.5 11.4999 30 13.3333 30H14.9999V35H26.6666V27.2C31.0333 25.1167 33.9166 20.4 33.2333 15.1ZM24.8166 24.3833L23.3333 25.0833V31.6667H18.3333V26.6667H13.3333V20H11.1666L13.3833 16.1167C13.6833 11.7667 17.2499 8.33333 21.6666 8.33333C26.2666 8.33333 29.9999 12.0667 29.9999 16.6667C29.9999 20.15 27.8499 23.1333 24.8166 24.3833Z" fill="#E5E5E5"/>
</svg>
