<svg width="40" height="40" viewBox="0 0 40 40" fill="none" xmlns="http://www.w3.org/2000/svg">
<path d="M8.33333 8.33329H11.6667V13.3333H28.3333V8.33329H31.6667V16.6666H35V8.33329C35 6.49996 33.5 4.99996 31.6667 4.99996H24.7C24 3.06663 22.1667 1.66663 20 1.66663C17.8333 1.66663 16 3.06663 15.3 4.99996H8.33333C6.5 4.99996 5 6.49996 5 8.33329V31.6666C5 33.5 6.5 35 8.33333 35H18.3333V31.6666H8.33333V8.33329ZM20 4.99996C20.9167 4.99996 21.6667 5.74996 21.6667 6.66663C21.6667 7.58329 20.9167 8.33329 20 8.33329C19.0833 8.33329 18.3333 7.58329 18.3333 6.66663C18.3333 5.74996 19.0833 4.99996 20 4.99996Z" fill="#E5E5E5"/>
<path d="M35 19.1666L25.85 28.3333L20.8333 23.3333L18.3333 25.8333L25.85 33.3333L37.5 21.6666L35 19.1666Z" fill="#E5E5E5"/>
</svg>
