<svg width="34" height="32" viewBox="0 0 34 32" fill="none" xmlns="http://www.w3.org/2000/svg">
<path d="M18.6666 26.6667H15.3333V31.6667H18.6666V26.6667Z" fill="#E5E5E5"/>
<path d="M5.33331 13.3333H0.333313V16.6666H5.33331V13.3333Z" fill="#E5E5E5"/>
<path d="M33.6666 13.3333H28.6666V16.6666H33.6666V13.3333Z" fill="#E5E5E5"/>
<path d="M25.8353 22.3238L23.4901 24.669L27.0256 28.2045L29.3708 25.8593L25.8353 22.3238Z" fill="#E5E5E5"/>
<path d="M8.17576 22.312L4.64026 25.8475L6.98547 28.1927L10.521 24.6572L8.17576 22.312Z" fill="#E5E5E5"/>
<path d="M22 8.36667V0H12V8.36667C9.98329 9.9 8.66663 12.2833 8.66663 15C8.66663 19.6 12.4 23.3333 17 23.3333C21.6 23.3333 25.3333 19.6 25.3333 15C25.3333 12.2833 24.0166 9.9 22 8.36667ZM15.3333 3.33333H18.6666V6.83333C18.1333 6.73333 17.5666 6.66667 17 6.66667C16.4333 6.66667 15.8666 6.73333 15.3333 6.83333V3.33333ZM17 20C14.25 20 12 17.75 12 15C12 12.25 14.25 10 17 10C19.75 10 22 12.25 22 15C22 17.75 19.75 20 17 20Z" fill="#E5E5E5"/>
</svg>
