<svg width="40" height="40" viewBox="0 0 40 40" fill="none" xmlns="http://www.w3.org/2000/svg">
<path d="M31 11.0333C28.6 11.0333 26.3333 11.9667 24.7167 13.5833L13 23.9833C11.9333 25.05 10.5167 25.6333 9 25.6333C5.88333 25.6333 3.35 23.1167 3.35 20C3.35 16.8833 5.88333 14.3667 9 14.3667C10.5167 14.3667 11.9333 14.95 13.0667 16.0833L14.95 17.75L17.4667 15.5167L15.3667 13.6667C13.6667 11.9667 11.4 11.0333 9 11.0333C4.03333 11.0333 0 15.0667 0 20C0 24.9333 4.03333 28.9667 9 28.9667C11.4 28.9667 13.6667 28.0333 15.2833 26.4167L27 16.0167C28.0667 14.95 29.4833 14.3667 31 14.3667C34.1167 14.3667 36.65 16.8833 36.65 20C36.65 23.1167 34.1167 25.6333 31 25.6333C29.5 25.6333 28.0667 25.05 26.9333 23.9167L25.0333 22.2333L22.5167 24.4667L24.6333 26.3333C26.3333 28.0167 28.5833 28.95 31 28.95C35.9667 28.95 40 24.9333 40 19.9833C40 15.0333 35.9667 11.0333 31 11.0333Z" fill="#E5E5E5"/>
</svg>
