<svg width="40" height="40" viewBox="0 0 40 40" fill="none" xmlns="http://www.w3.org/2000/svg">
<path d="M17.5 7.49996C17.9666 7.49996 18.3333 7.86663 18.3333 8.33329V11.6666H28.3333V21.6666H31.6666C32.1333 21.6666 32.5 22.0333 32.5 22.5C32.5 22.9666 32.1333 23.3333 31.6666 23.3333H28.3333V33.3333H24.8C23.6666 30.4166 20.8166 28.3333 17.5 28.3333C14.1833 28.3333 11.3333 30.4166 10.2 33.3333H6.66665V29.8C9.58331 28.6666 11.6666 25.8166 11.6666 22.5C11.6666 19.1833 9.59998 16.3333 6.68331 15.2L6.66665 11.6666H16.6666V8.33329C16.6666 7.86663 17.0333 7.49996 17.5 7.49996ZM17.5 4.16663C15.2 4.16663 13.3333 6.03329 13.3333 8.33329H6.66665C4.83331 8.33329 3.34998 9.83329 3.34998 11.6666V18H3.83331C6.31665 18 8.33331 20.0166 8.33331 22.5C8.33331 24.9833 6.31665 27 3.83331 27H3.33331V33.3333C3.33331 35.1666 4.83331 36.6666 6.66665 36.6666H13V36.1666C13 33.6833 15.0166 31.6666 17.5 31.6666C19.9833 31.6666 22 33.6833 22 36.1666V36.6666H28.3333C30.1666 36.6666 31.6666 35.1666 31.6666 33.3333V26.6666C33.9666 26.6666 35.8333 24.8 35.8333 22.5C35.8333 20.2 33.9666 18.3333 31.6666 18.3333V11.6666C31.6666 9.83329 30.1666 8.33329 28.3333 8.33329H21.6666C21.6666 6.03329 19.8 4.16663 17.5 4.16663Z" fill="#E5E5E5"/>
</svg>
